<?xml version="1.0" standalone="no"?>
<!DOCTYPE svg PUBLIC "-//W3C//DTD SVG 20010904//EN"
 "http://www.w3.org/TR/2001/REC-SVG-20010904/DTD/svg10.dtd">
<svg version="1.0" xmlns="http://www.w3.org/2000/svg"
 width="512.000000pt" height="512.000000pt" viewBox="0 0 512.000000 512.000000"
 preserveAspectRatio="xMidYMid meet">

<g transform="translate(0.000000,512.000000) scale(0.100000,-0.100000)"
fill="#000000" stroke="none">
<path d="M960 4655 l0 -465 155 0 155 0 0 202 0 203 885 -885 885 -885 238
238 237 237 343 -343 343 -343 -39 -50 c-21 -27 -71 -79 -110 -116 -357 -336
-899 -402 -1325 -161 -326 184 -551 535 -574 895 l-6 96 -303 303 -302 302
-21 -70 c-107 -360 -104 -749 9 -1100 62 -193 171 -402 289 -554 l50 -64 -227
-227 -227 -228 -132 132 -133 133 -575 -575 -575 -575 378 -378 377 -377 575
575 575 575 -135 135 -135 135 227 226 226 227 58 -45 c271 -208 583 -338 904
-378 123 -15 379 -12 495 5 934 141 1613 959 1571 1895 -33 749 -502 1392
-1206 1653 -202 74 -397 107 -640 107 -294 0 -555 -62 -817 -193 -97 -49 -274
-164 -336 -219 l-38 -33 250 -249 250 -250 58 41 c192 134 459 212 688 200
305 -17 562 -133 769 -347 139 -144 233 -309 284 -498 23 -87 26 -116 26 -277
1 -158 -2 -192 -23 -277 -13 -54 -27 -98 -30 -98 -3 0 -191 185 -416 410 -225
226 -414 410 -420 410 -5 0 -115 -105 -242 -232 l-233 -233 -773 773 -772 772
198 0 197 0 0 155 0 155 -465 0 -465 0 0 -465z"/>
<path d="M2640 775 l0 -155 1235 0 1235 0 0 155 0 155 -1235 0 -1235 0 0 -155z"/>
<path d="M1710 155 l0 -155 928 2 927 3 3 153 3 152 -931 0 -930 0 0 -155z"/>
</g>
</svg>
